<?xml version="1.0" encoding="UTF-8"?>
<svg xmlns="http://www.w3.org/2000/svg" xmlns:xlink="http://www.w3.org/1999/xlink" width="608pt" height="455pt" viewBox="0 0 608 455" version="1.1">
<g id="surface1">
<rect x="0" y="0" width="608" height="455" style="fill:rgb(100%,100%,100%);fill-opacity:1;stroke:none;"/>
<path style="fill:none;stroke-width:0.75;stroke-linecap:round;stroke-linejoin:round;stroke:rgb(0%,0%,0%);stroke-opacity:1;stroke-miterlimit:10;" d="M 244.609375 360.890625 L 243.609375 363.144531 L 242.605469 365.394531 L 239.59375 372.15625 L 238.59375 374.410156 L 237.589844 376.660156 L 233.574219 385.675781 L 232.574219 387.929688 L 231.570312 390.179688 L 228.558594 396.941406 L 227.558594 399.195312 L 226.554688 401.445312 L 224.546875 405.953125 L 222.316406 404.941406 L 220.09375 403.902344 L 217.886719 402.835938 L 215.695312 401.742188 L 213.515625 400.621094 L 211.351562 399.472656 L 209.199219 398.296875 L 207.066406 397.09375 L 204.945312 395.863281 L 202.839844 394.609375 L 200.75 393.324219 L 198.679688 392.015625 L 196.621094 390.683594 L 194.585938 389.324219 L 192.5625 387.9375 L 190.558594 386.527344 L 188.570312 385.089844 L 186.605469 383.628906 L 184.652344 382.144531 L 182.722656 380.636719 L 180.8125 379.101562 L 178.917969 377.542969 L 177.046875 375.960938 L 175.195312 374.359375 L 173.359375 372.730469 L 171.550781 371.078125 L 169.757812 369.40625 L 167.988281 367.710938 L 166.238281 365.992188 L 164.511719 364.253906 L 162.808594 362.492188 L 161.125 360.710938 L 159.464844 358.90625 L 157.828125 357.085938 L 156.214844 355.238281 L 154.621094 353.375 L 153.054688 351.492188 L 151.511719 349.589844 L 149.992188 347.664062 L 148.496094 345.722656 L 147.023438 343.761719 L 145.578125 341.785156 L 144.15625 339.789062 L 142.761719 337.773438 L 141.390625 335.742188 L 140.042969 333.691406 L 138.726562 331.628906 L 137.429688 329.546875 L 136.164062 327.449219 L 134.921875 325.335938 L 133.710938 323.203125 L 132.523438 321.0625 L 131.363281 318.902344 L 130.226562 316.730469 L 129.121094 314.542969 L 128.042969 312.339844 L 126.992188 310.125 L 125.972656 307.898438 L 124.976562 305.660156 L 124.007812 303.40625 L 123.070312 301.140625 L 122.160156 298.867188 L 121.28125 296.578125 L 120.429688 294.28125 L 119.605469 291.972656 L 118.808594 289.652344 L 118.046875 287.324219 L 117.308594 284.988281 L 116.601562 282.640625 L 115.925781 280.285156 L 115.277344 277.921875 L 114.660156 275.550781 L 114.070312 273.171875 L 113.515625 270.785156 L 112.984375 268.390625 L 112.488281 265.992188 L 112.019531 263.585938 L 111.582031 261.171875 L 111.175781 258.757812 L 110.796875 256.335938 L 110.453125 253.90625 L 110.136719 251.476562 L 109.851562 249.042969 L 109.59375 246.605469 L 109.371094 244.164062 L 109.175781 241.722656 L 109.011719 239.277344 L 108.882812 236.828125 L 108.78125 234.378906 L 108.707031 231.929688 L 108.667969 229.480469 L 108.660156 227.027344 L 108.679688 224.578125 L 108.730469 222.128906 L 108.816406 219.679688 L 108.929688 217.230469 L 109.074219 214.78125 L 109.246094 212.339844 L 109.453125 209.894531 L 109.6875 207.457031 L 109.957031 205.019531 L 110.253906 202.585938 L 110.582031 200.15625 L 110.941406 197.734375 L 111.328125 195.3125 L 111.746094 192.898438 L 112.195312 190.488281 L 112.675781 188.085938 L 113.1875 185.6875 L 113.726562 183.296875 L 114.292969 180.914062 L 114.894531 178.539062 L 115.523438 176.167969 L 116.183594 173.808594 L 116.871094 171.457031 L 117.589844 169.113281 L 118.335938 166.777344 L 119.113281 164.453125 L 119.917969 162.136719 L 120.753906 159.832031 L 121.617188 157.539062 L 122.507812 155.257812 L 123.429688 152.984375 L 124.378906 150.726562 L 125.355469 148.476562 L 126.359375 146.242188 L 127.394531 144.019531 L 128.457031 141.8125 L 129.542969 139.617188 L 130.660156 137.433594 L 131.804688 135.265625 L 132.976562 133.113281 L 134.171875 130.972656 L 135.398438 128.851562 L 136.648438 126.742188 L 137.925781 124.652344 L 139.230469 122.574219 L 140.558594 120.515625 L 141.914062 118.476562 L 143.292969 116.449219 L 144.699219 114.441406 L 146.132812 112.453125 L 147.585938 110.480469 L 149.066406 108.527344 L 150.574219 106.59375 L 152.101562 104.675781 L 153.65625 102.78125 L 155.230469 100.90625 L 156.832031 99.046875 L 158.453125 97.210938 L 160.101562 95.394531 L 161.769531 93.601562 L 163.460938 91.828125 L 165.175781 90.074219 L 166.910156 88.34375 L 168.667969 86.632812 L 170.445312 84.949219 L 172.242188 83.28125 L 174.0625 81.640625 L 175.902344 80.023438 L 177.765625 78.425781 L 179.644531 76.855469 L 181.542969 75.304688 L 183.464844 73.78125 L 185.402344 72.28125 L 187.359375 70.804688 L 189.332031 69.355469 L 191.328125 67.929688 L 193.335938 66.527344 L 195.367188 65.152344 L 197.410156 63.800781 L 199.472656 62.476562 L 201.554688 61.179688 L 203.648438 59.90625 L 205.757812 58.660156 L 207.882812 57.441406 L 210.027344 56.25 L 212.183594 55.082031 L 214.351562 53.945312 L 216.535156 52.832031 L 218.734375 51.75 L 220.945312 50.695312 L 223.171875 49.664062 L 225.410156 48.664062 L 227.660156 47.691406 L 229.921875 46.75 L 232.195312 45.835938 L 234.480469 44.949219 L 236.777344 44.089844 L 239.082031 43.261719 L 241.398438 42.460938 L 243.726562 41.691406 L 246.0625 40.949219 L 248.40625 40.234375 L 250.761719 39.554688 L 253.125 38.898438 L 255.492188 38.277344 L 257.871094 37.683594 L 260.257812 37.117188 L 262.648438 36.585938 L 265.046875 36.082031 L 267.453125 35.609375 L 269.863281 35.164062 L 272.277344 34.75 L 274.699219 34.367188 L 277.125 34.015625 L 279.554688 33.695312 L 281.988281 33.402344 L 284.425781 33.140625 L 286.867188 32.910156 L 289.308594 32.710938 L 291.753906 32.542969 L 294.199219 32.40625 L 296.648438 32.296875 L 299.097656 32.21875 L 301.550781 32.171875 L 304 32.160156 L 306.449219 32.171875 L 308.902344 32.21875 L 311.351562 32.296875 L 313.800781 32.40625 L 316.246094 32.542969 L 318.691406 32.710938 L 321.132812 32.910156 L 323.574219 33.140625 L 326.011719 33.402344 L 328.445312 33.695312 L 330.875 34.015625 L 333.300781 34.367188 L 335.722656 34.75 L 338.136719 35.164062 L 340.546875 35.609375 L 342.953125 36.082031 L 345.351562 36.585938 L 347.742188 37.117188 L 350.128906 37.683594 L 352.507812 38.277344 L 354.875 38.898438 L 357.238281 39.554688 L 359.59375 40.234375 L 361.9375 40.949219 L 364.273438 41.691406 L 366.601562 42.460938 L 368.917969 43.261719 L 371.222656 44.089844 L 373.519531 44.949219 L 375.804688 45.835938 L 378.078125 46.75 L 380.339844 47.691406 L 382.589844 48.664062 L 384.828125 49.664062 L 387.054688 50.695312 L 389.265625 51.75 L 391.464844 52.832031 L 393.648438 53.945312 L 395.816406 55.082031 L 397.972656 56.25 L 400.117188 57.441406 L 402.242188 58.660156 L 404.351562 59.90625 L 406.445312 61.179688 L 408.527344 62.476562 L 410.589844 63.800781 L 412.632812 65.152344 L 414.664062 66.527344 L 416.671875 67.929688 L 418.667969 69.355469 L 420.640625 70.804688 L 422.597656 72.28125 L 424.535156 73.78125 L 426.457031 75.304688 L 428.355469 76.855469 L 430.234375 78.425781 L 432.097656 80.023438 L 433.9375 81.640625 L 435.757812 83.28125 L 437.554688 84.949219 L 439.332031 86.632812 L 441.089844 88.34375 L 442.824219 90.074219 L 444.539062 91.828125 L 446.230469 93.601562 L 447.898438 95.394531 L 449.546875 97.210938 L 451.167969 99.046875 L 452.769531 100.90625 L 454.34375 102.78125 L 455.898438 104.675781 L 457.425781 106.59375 L 458.933594 108.527344 L 460.414062 110.480469 L 461.867188 112.453125 L 463.300781 114.441406 L 464.707031 116.449219 L 466.085938 118.476562 L 467.441406 120.515625 L 468.769531 122.574219 L 470.074219 124.652344 L 471.351562 126.742188 L 472.601562 128.851562 L 473.828125 130.972656 L 475.023438 133.113281 L 476.195312 135.265625 L 477.339844 137.433594 L 478.457031 139.617188 L 479.542969 141.8125 L 480.605469 144.019531 L 481.640625 146.242188 L 482.644531 148.476562 L 483.621094 150.726562 L 484.570312 152.984375 L 485.492188 155.257812 L 486.382812 157.539062 L 487.246094 159.832031 L 488.082031 162.136719 L 488.886719 164.453125 L 489.664062 166.777344 L 490.410156 169.113281 L 491.128906 171.457031 L 491.816406 173.808594 L 492.476562 176.167969 L 493.105469 178.539062 L 493.707031 180.914062 L 494.273438 183.296875 L 494.8125 185.6875 L 495.324219 188.085938 L 495.804688 190.488281 L 496.253906 192.898438 L 496.671875 195.3125 L 497.058594 197.734375 L 497.417969 200.15625 L 497.746094 202.585938 L 498.042969 205.019531 L 498.3125 207.457031 L 498.546875 209.894531 L 498.753906 212.339844 L 498.925781 214.78125 L 499.070312 217.230469 L 499.183594 219.679688 L 499.269531 222.128906 L 499.320312 224.578125 L 499.339844 227.027344 L 499.332031 229.480469 L 499.292969 231.929688 L 499.21875 234.378906 L 499.117188 236.828125 L 498.988281 239.277344 L 498.824219 241.722656 L 498.628906 244.164062 L 498.40625 246.605469 L 498.148438 249.042969 L 497.863281 251.476562 L 497.546875 253.90625 L 497.203125 256.335938 L 496.824219 258.757812 L 496.417969 261.171875 L 495.980469 263.585938 L 495.511719 265.992188 L 495.015625 268.390625 L 494.484375 270.785156 L 493.929688 273.171875 L 493.339844 275.550781 L 492.722656 277.921875 L 492.074219 280.285156 L 491.398438 282.640625 L 490.691406 284.988281 L 489.953125 287.324219 L 489.191406 289.652344 L 488.394531 291.972656 L 487.570312 294.28125 L 486.71875 296.578125 L 485.839844 298.867188 L 484.929688 301.140625 L 483.992188 303.40625 L 483.023438 305.660156 L 482.027344 307.898438 L 481.007812 310.125 L 479.957031 312.339844 L 478.878906 314.542969 L 477.773438 316.730469 L 476.636719 318.902344 L 475.476562 321.0625 L 474.289062 323.203125 L 473.078125 325.335938 L 471.835938 327.449219 L 470.570312 329.546875 L 469.273438 331.628906 L 467.957031 333.691406 L 466.609375 335.742188 L 465.238281 337.773438 L 463.84375 339.789062 L 462.421875 341.785156 L 460.976562 343.761719 L 459.503906 345.722656 L 458.007812 347.664062 L 456.488281 349.589844 L 454.945312 351.492188 L 453.378906 353.375 L 451.785156 355.238281 L 450.171875 357.085938 L 448.535156 358.90625 L 446.875 360.710938 L 445.191406 362.492188 L 443.488281 364.253906 L 441.761719 365.992188 L 440.011719 367.710938 L 438.242188 369.40625 L 436.449219 371.078125 L 434.640625 372.730469 L 432.804688 374.359375 L 430.953125 375.960938 L 429.082031 377.542969 L 427.1875 379.101562 L 425.277344 380.636719 L 423.347656 382.144531 L 421.394531 383.628906 L 419.429688 385.089844 L 417.441406 386.527344 L 415.4375 387.9375 L 413.414062 389.324219 L 411.378906 390.683594 L 409.320312 392.015625 L 407.25 393.324219 L 405.160156 394.609375 L 403.054688 395.863281 L 400.933594 397.09375 L 398.800781 398.296875 L 396.648438 399.472656 L 394.484375 400.621094 L 392.304688 401.742188 L 390.113281 402.835938 L 387.90625 403.902344 L 385.683594 404.941406 L 383.453125 405.953125 L 381.445312 401.445312 L 380.441406 399.195312 L 379.441406 396.941406 L 376.429688 390.179688 L 375.425781 387.929688 L 374.425781 385.675781 L 370.410156 376.660156 L 369.40625 374.410156 L 368.40625 372.15625 L 365.394531 365.394531 L 364.390625 363.144531 L 363.390625 360.890625 L 365.058594 360.132812 L 366.71875 359.355469 L 368.367188 358.558594 L 370.003906 357.742188 L 371.632812 356.902344 L 373.253906 356.046875 L 374.859375 355.164062 L 376.457031 354.265625 L 378.042969 353.347656 L 379.613281 352.410156 L 381.175781 351.449219 L 382.726562 350.472656 L 384.261719 349.476562 L 385.785156 348.457031 L 387.296875 347.421875 L 388.796875 346.367188 L 390.28125 345.292969 L 391.75 344.203125 L 393.207031 343.09375 L 394.652344 341.964844 L 396.082031 340.816406 L 397.496094 339.652344 L 398.894531 338.472656 L 400.28125 337.273438 L 401.648438 336.054688 L 403.003906 334.820312 L 404.34375 333.570312 L 405.664062 332.304688 L 406.972656 331.019531 L 408.261719 329.71875 L 409.539062 328.402344 L 410.796875 327.070312 L 412.035156 325.722656 L 413.261719 324.359375 L 414.464844 322.984375 L 415.65625 321.589844 L 416.828125 320.179688 L 417.980469 318.757812 L 419.117188 317.320312 L 420.234375 315.867188 L 421.335938 314.402344 L 422.417969 312.925781 L 423.480469 311.433594 L 424.523438 309.925781 L 425.546875 308.40625 L 426.550781 306.875 L 427.539062 305.332031 L 428.503906 303.777344 L 429.453125 302.207031 L 430.378906 300.628906 L 431.289062 299.035156 L 432.175781 297.433594 L 433.042969 295.820312 L 433.890625 294.195312 L 434.714844 292.5625 L 435.523438 290.917969 L 436.308594 289.261719 L 437.074219 287.597656 L 437.816406 285.921875 L 438.539062 284.238281 L 439.238281 282.546875 L 439.917969 280.84375 L 440.578125 279.136719 L 441.214844 277.417969 L 441.832031 275.691406 L 442.425781 273.957031 L 442.996094 272.21875 L 443.546875 270.472656 L 444.074219 268.714844 L 444.582031 266.957031 L 445.066406 265.1875 L 445.527344 263.414062 L 445.964844 261.636719 L 446.382812 259.855469 L 446.777344 258.066406 L 447.148438 256.269531 L 447.5 254.472656 L 447.828125 252.667969 L 448.132812 250.863281 L 448.414062 249.054688 L 448.671875 247.238281 L 448.910156 245.421875 L 449.121094 243.601562 L 449.3125 241.78125 L 449.480469 239.957031 L 449.625 238.128906 L 449.746094 236.300781 L 449.847656 234.472656 L 449.921875 232.644531 L 449.976562 230.8125 L 450.003906 228.980469 L 450.011719 227.148438 L 449.996094 225.316406 L 449.957031 223.484375 L 449.894531 221.652344 L 449.8125 219.824219 L 449.703125 217.996094 L 449.574219 216.167969 L 449.417969 214.339844 L 449.242188 212.519531 L 449.042969 210.695312 L 448.820312 208.878906 L 448.574219 207.0625 L 448.308594 205.25 L 448.015625 203.441406 L 447.703125 201.636719 L 447.367188 199.835938 L 447.011719 198.039062 L 446.628906 196.246094 L 446.226562 194.460938 L 445.800781 192.679688 L 445.351562 190.902344 L 444.882812 189.128906 L 444.390625 187.367188 L 443.875 185.609375 L 443.335938 183.855469 L 442.777344 182.113281 L 442.199219 180.375 L 441.597656 178.644531 L 440.972656 176.921875 L 440.328125 175.207031 L 439.660156 173.5 L 438.972656 171.800781 L 438.261719 170.113281 L 437.53125 168.433594 L 436.78125 166.761719 L 436.007812 165.101562 L 435.214844 163.449219 L 434.402344 161.808594 L 433.566406 160.175781 L 432.710938 158.558594 L 431.835938 156.949219 L 430.941406 155.347656 L 430.027344 153.761719 L 429.089844 152.1875 L 428.136719 150.625 L 427.160156 149.070312 L 426.167969 147.53125 L 425.15625 146.007812 L 424.125 144.492188 L 423.070312 142.992188 L 422.003906 141.503906 L 420.914062 140.03125 L 419.808594 138.570312 L 418.683594 137.125 L 417.539062 135.691406 L 416.378906 134.277344 L 415.199219 132.875 L 414.003906 131.484375 L 412.792969 130.113281 L 411.5625 128.753906 L 410.3125 127.414062 L 409.050781 126.085938 L 407.769531 124.777344 L 406.472656 123.484375 L 405.160156 122.207031 L 403.828125 120.945312 L 402.484375 119.703125 L 401.125 118.472656 L 399.75 117.265625 L 398.359375 116.070312 L 396.953125 114.894531 L 395.53125 113.738281 L 394.097656 112.597656 L 392.648438 111.476562 L 391.1875 110.375 L 389.710938 109.289062 L 388.21875 108.222656 L 386.71875 107.175781 L 385.199219 106.148438 L 383.671875 105.140625 L 382.128906 104.148438 L 380.578125 103.179688 L 379.011719 102.226562 L 377.433594 101.296875 L 375.84375 100.386719 L 374.242188 99.492188 L 372.632812 98.621094 L 371.007812 97.769531 L 369.375 96.941406 L 367.734375 96.128906 L 366.078125 95.339844 L 364.417969 94.574219 L 362.746094 93.824219 L 361.0625 93.097656 L 359.371094 92.394531 L 357.671875 91.710938 L 355.964844 91.046875 L 354.25 90.40625 L 352.523438 89.785156 L 350.792969 89.1875 L 349.054688 88.613281 L 347.308594 88.058594 L 345.554688 87.523438 L 343.792969 87.015625 L 342.027344 86.527344 L 340.257812 86.058594 L 338.480469 85.617188 L 336.695312 85.195312 L 334.910156 84.796875 L 333.117188 84.417969 L 331.320312 84.066406 L 329.515625 83.734375 L 327.710938 83.425781 L 325.902344 83.140625 L 324.089844 82.875 L 322.273438 82.636719 L 320.453125 82.417969 L 318.632812 82.222656 L 316.808594 82.050781 L 314.980469 81.902344 L 313.152344 81.773438 L 311.324219 81.671875 L 309.496094 81.589844 L 307.664062 81.53125 L 305.832031 81.5 L 304 81.488281 L 302.167969 81.5 L 300.335938 81.53125 L 298.503906 81.589844 L 296.675781 81.671875 L 294.847656 81.773438 L 293.019531 81.902344 L 291.191406 82.050781 L 289.367188 82.222656 L 287.546875 82.417969 L 285.726562 82.636719 L 283.910156 82.875 L 282.097656 83.140625 L 280.289062 83.425781 L 278.484375 83.734375 L 276.679688 84.066406 L 274.882812 84.417969 L 273.089844 84.796875 L 271.304688 85.195312 L 269.519531 85.617188 L 267.742188 86.058594 L 265.972656 86.527344 L 264.207031 87.015625 L 262.445312 87.523438 L 260.691406 88.058594 L 258.945312 88.613281 L 257.207031 89.1875 L 255.476562 89.785156 L 253.75 90.40625 L 252.035156 91.046875 L 250.328125 91.710938 L 248.628906 92.394531 L 246.9375 93.097656 L 245.253906 93.824219 L 243.582031 94.574219 L 241.921875 95.339844 L 240.265625 96.128906 L 238.625 96.941406 L 236.992188 97.769531 L 235.367188 98.621094 L 233.757812 99.492188 L 232.15625 100.386719 L 230.566406 101.296875 L 228.988281 102.226562 L 227.421875 103.179688 L 225.871094 104.148438 L 224.328125 105.140625 L 222.800781 106.148438 L 221.28125 107.175781 L 219.78125 108.222656 L 218.289062 109.289062 L 216.8125 110.375 L 215.351562 111.476562 L 213.902344 112.597656 L 212.46875 113.738281 L 211.046875 114.894531 L 209.640625 116.070312 L 208.25 117.265625 L 206.875 118.472656 L 205.515625 119.703125 L 204.171875 120.945312 L 202.839844 122.207031 L 201.527344 123.484375 L 200.230469 124.777344 L 198.949219 126.085938 L 197.6875 127.414062 L 196.4375 128.753906 L 195.207031 130.113281 L 193.996094 131.484375 L 192.800781 132.875 L 191.621094 134.277344 L 190.460938 135.691406 L 189.316406 137.125 L 188.191406 138.570312 L 187.085938 140.03125 L 185.996094 141.503906 L 184.929688 142.992188 L 183.875 144.492188 L 182.84375 146.007812 L 181.832031 147.53125 L 180.839844 149.070312 L 179.863281 150.625 L 178.910156 152.1875 L 177.972656 153.761719 L 177.058594 155.347656 L 176.164062 156.949219 L 175.289062 158.558594 L 174.433594 160.175781 L 173.597656 161.808594 L 172.785156 163.449219 L 171.992188 165.101562 L 171.21875 166.761719 L 170.46875 168.433594 L 169.738281 170.113281 L 169.027344 171.800781 L 168.339844 173.5 L 167.671875 175.207031 L 167.027344 176.921875 L 166.402344 178.644531 L 165.800781 180.375 L 165.222656 182.113281 L 164.664062 183.855469 L 164.125 185.609375 L 163.609375 187.367188 L 163.117188 189.128906 L 162.648438 190.902344 L 162.199219 192.679688 L 161.773438 194.460938 L 161.371094 196.246094 L 160.988281 198.039062 L 160.632812 199.835938 L 160.296875 201.636719 L 159.984375 203.441406 L 159.691406 205.25 L 159.425781 207.0625 L 159.179688 208.878906 L 158.957031 210.695312 L 158.757812 212.519531 L 158.582031 214.339844 L 158.425781 216.167969 L 158.296875 217.996094 L 158.1875 219.824219 L 158.105469 221.652344 L 158.042969 223.484375 L 158.003906 225.316406 L 157.988281 227.148438 L 157.996094 228.980469 L 158.023438 230.8125 L 158.078125 232.644531 L 158.152344 234.472656 L 158.253906 236.300781 L 158.375 238.128906 L 158.519531 239.957031 L 158.6875 241.78125 L 158.878906 243.601562 L 159.089844 245.421875 L 159.328125 247.238281 L 159.585938 249.054688 L 159.867188 250.863281 L 160.171875 252.667969 L 160.5 254.472656 L 160.851562 256.269531 L 161.222656 258.066406 L 161.617188 259.855469 L 162.035156 261.636719 L 162.472656 263.414062 L 162.933594 265.1875 L 163.417969 266.957031 L 163.925781 268.714844 L 164.453125 270.472656 L 165.003906 272.21875 L 165.574219 273.957031 L 166.167969 275.691406 L 166.785156 277.417969 L 167.421875 279.136719 L 168.082031 280.84375 L 168.761719 282.546875 L 169.460938 284.238281 L 170.183594 285.921875 L 170.925781 287.597656 L 171.691406 289.261719 L 172.476562 290.917969 L 173.285156 292.5625 L 174.109375 294.195312 L 174.957031 295.820312 L 175.824219 297.433594 L 176.710938 299.035156 L 177.621094 300.628906 L 178.546875 302.207031 L 179.496094 303.777344 L 180.460938 305.332031 L 181.449219 306.875 L 182.453125 308.40625 L 183.476562 309.925781 L 184.519531 311.433594 L 185.582031 312.925781 L 186.664062 314.402344 L 187.765625 315.867188 L 188.882812 317.320312 L 190.019531 318.757812 L 191.171875 320.179688 L 192.34375 321.589844 L 193.535156 322.984375 L 194.738281 324.359375 L 195.964844 325.722656 L 197.203125 327.070312 L 198.460938 328.402344 L 199.738281 329.71875 L 201.027344 331.019531 L 202.335938 332.304688 L 203.65625 333.570312 L 204.996094 334.820312 L 206.351562 336.054688 L 207.71875 337.273438 L 209.105469 338.472656 L 210.503906 339.652344 L 211.917969 340.816406 L 213.347656 341.964844 L 214.792969 343.09375 L 216.25 344.203125 L 217.71875 345.292969 L 219.203125 346.367188 L 220.703125 347.421875 L 222.214844 348.457031 L 223.738281 349.476562 L 225.273438 350.472656 L 226.824219 351.449219 L 228.386719 352.410156 L 229.957031 353.347656 L 231.542969 354.265625 L 233.140625 355.164062 L 234.746094 356.046875 L 236.367188 356.902344 L 237.996094 357.742188 L 239.632812 358.558594 L 241.28125 359.355469 L 242.941406 360.132812 L 244.609375 360.890625 "/>
</g>
</svg>
